<svg xmlns="http://www.w3.org/2000/svg" xmlns:xlink="http://www.w3.org/1999/xlink" id="ezCrXJn2kcG1" shape-rendering="geometricPrecision" text-rendering="geometricPrecision" viewBox="0 0 500 500"><style>@keyframes ezCrXJn2kcG4_tr__tr{0%{transform:translate(254.598862px,252.120583px) rotate(0deg)}}@keyframes ezCrXJn2kcG5_tr__tr{0%{transform:translate(250.89922px,253.658642px) rotate(0deg);animation-timing-function:cubic-bezier(.85,.2,.235,.835)}33.333333%{transform:translate(250.89922px,253.658642px) rotate(360deg);animation-timing-function:cubic-bezier(.85,.2,.235,.835)}66.666667%{transform:translate(250.89922px,253.658642px) rotate(720deg);animation-timing-function:cubic-bezier(.85,.2,.235,.835)}}@keyframes ezCrXJn2kcG7_s_p{0%,13.333333%,33.333333%,46.666667%,66.666667%,80%{stroke:#40a2f5}16.666667%,50%,83.333333%{stroke:#17daff;animation-timing-function:cubic-bezier(.55,.085,.94,.415)}}@keyframes ezCrXJn2kcG11-fill-0__c{0%,13.333333%,33.333333%,46.666667%,66.666667%,80%{stop-color:#40a2f5}16.666667%,50%,83.333333%{stop-color:#17daff;animation-timing-function:cubic-bezier(.55,.085,.94,.415)}}@keyframes ezCrXJn2kcG11-fill-1__c{0%,13.333333%,33.333333%,46.666667%,66.666667%,80%{stop-color:#40a2f5}16.666667%,50%,83.333333%{stop-color:#40a2f5;animation-timing-function:cubic-bezier(.55,.085,.94,.415)}}#ezCrXJn2kcG4_tr{animation:ezCrXJn2kcG4_tr__tr 6000ms linear infinite normal forwards}#ezCrXJn2kcG5_tr{animation:ezCrXJn2kcG5_tr__tr 6000ms linear infinite normal forwards}#ezCrXJn2kcG7{animation:ezCrXJn2kcG7_s_p 6000ms linear infinite normal forwards}#ezCrXJn2kcG11-fill-0{animation:ezCrXJn2kcG11-fill-0__c 6000ms linear infinite normal forwards}#ezCrXJn2kcG11-fill-1{animation:ezCrXJn2kcG11-fill-1__c 6000ms linear infinite normal forwards}</style><defs><linearGradient id="ezCrXJn2kcG9-fill" x1=".775" x2=".221" y1=".072" y2=".548" gradientUnits="objectBoundingBox" spreadMethod="pad"><stop id="ezCrXJn2kcG9-fill-0" offset="0%" stop-color="#000"/><stop id="ezCrXJn2kcG9-fill-1" offset="100%" stop-color="#FFF"/></linearGradient><linearGradient id="ezCrXJn2kcG11-fill" x1=".463" x2=".491" y1=".884" y2=".017" gradientUnits="objectBoundingBox" spreadMethod="pad"><stop id="ezCrXJn2kcG11-fill-0" offset="0%" stop-color="#40A2F5"/><stop id="ezCrXJn2kcG11-fill-1" offset="100%" stop-color="#40A2F5"/></linearGradient></defs><g id="ezCrXJn2kcG2" display="none"><rect id="ezCrXJn2kcG3" width="500" height="500" fill="#FFF" stroke="none" stroke-width="1" rx="0" ry="0"/></g><g id="ezCrXJn2kcG4_tr" transform="translate(254.598862,252.120583) rotate(0)"><g id="ezCrXJn2kcG4" transform="translate(-243.976158,-253.658646)"><g id="ezCrXJn2kcG5_tr" transform="translate(250.899220,253.658642) rotate(0)"><g id="ezCrXJn2kcG5" transform="translate(-250.899220,-253.658642)"><g id="ezCrXJn2kcG6" mask="url(#ezCrXJn2kcG8)"><path id="ezCrXJn2kcG7" fill="none" stroke="#40A2F5" stroke-dasharray="0 80" stroke-linecap="round" stroke-width="50" d="M-176.502176,0C-176.502176,-97.479460,-97.479460,-176.502176,0,-176.502176C97.479460,-176.502176,176.502176,-97.479460,176.502176,0C176.502176,97.479460,97.479460,176.502176,0,176.502176C-97.479460,176.502176,-176.502176,97.479460,-176.502176,0Z" transform="matrix(0.57356208121620 0.15095072337817 -0.15095072337817 0.57356208121620 251.23450045974624 253.65864455999997)"/><mask id="ezCrXJn2kcG8" mask-type="luminance"><path id="ezCrXJn2kcG9" fill="url(#ezCrXJn2kcG9-fill)" stroke="none" stroke-width="1" d="M131.079637,246.525922L173.169428,248.530198L349.545697,163.682523Q392.971673,205.772314,392.303581,256.547301C391.635489,307.322288,339.524318,394.842330,239.978621,386.157135C140.432924,377.471940,111.036880,291.956173,131.079637,246.525922Z"/></mask></g><g id="ezCrXJn2kcG10" transform="matrix(0.95341820143198 0.28833817179179 -0.28833817179179 0.95341820143198 125.17352011711705 114.46557871278685)"><polygon id="ezCrXJn2kcG11" fill="url(#ezCrXJn2kcG11-fill)" stroke="none" stroke-width="1" points="111 115 69.913 108.802 59 104 48.021 108.868 8 115 59 5 111 115"/><polygon id="ezCrXJn2kcG12" style="mix-blend-mode:soft-light" fill="#000" stroke="none" stroke-width="1" points="59 104 59 5 47.988 108.802 59 104" opacity=".6"/><polygon id="ezCrXJn2kcG13" style="mix-blend-mode:soft-light" fill="#DEEDFF" stroke="none" stroke-width="1" points="59 104 59 5 69.946 108.802 59 104" opacity=".6"/></g></g></g></g></g></svg>